<?xml version="1.0" standalone="no"?>
<!DOCTYPE svg PUBLIC "-//W3C//DTD SVG 20010904//EN"
 "http://www.w3.org/TR/2001/REC-SVG-20010904/DTD/svg10.dtd">
<svg version="1.0" xmlns="http://www.w3.org/2000/svg"
 width="419.000000pt" height="199.000000pt" viewBox="0 0 419.000000 199.000000"
 preserveAspectRatio="xMidYMid meet">

<g transform="translate(0.000000,199.000000) scale(0.100000,-0.100000)"
fill="#000000" stroke="none">
<path d="M450 1708 c-52 -35 -73 -71 -78 -131 -5 -64 12 -103 63 -144 l35 -28
0 -465 c0 -446 1 -466 20 -498 11 -18 34 -41 52 -52 31 -19 51 -20 298 -20
247 0 267 1 298 20 47 29 72 75 72 137 l0 51 89 4 c79 3 93 6 116 28 31 29 60
81 70 127 l7 33 -59 0 c-58 0 -59 0 -72 -35 l-12 -35 -70 0 -69 0 0 35 0 35
-70 0 -70 0 -2 -32 c-1 -18 -3 -42 -4 -53 -1 -11 -2 -39 -3 -63 -1 -41 -2 -43
-28 -40 -30 3 -28 -11 -32 166 -1 18 -7 22 -36 22 l-35 0 0 -95 0 -95 -30 0
-29 0 -3 96 -3 96 -37 13 -38 13 0 -109 0 -109 -30 0 -30 0 0 131 0 131 -30
35 c-16 18 -31 39 -32 46 -1 7 -5 -67 -8 -163 l-5 -175 -30 0 -30 0 -3 327
c-2 312 -1 327 16 333 32 10 52 -5 53 -39 0 -28 1 -29 12 -12 27 43 72 88 106
105 l36 19 -42 11 c-30 8 -48 21 -60 42 -15 25 -22 29 -45 24 -36 -8 -68 10
-68 39 0 21 -3 22 -55 18 -52 -4 -56 -3 -90 31 -30 30 -35 42 -35 82 0 40 5
52 34 81 29 29 41 34 79 34 78 0 136 -71 116 -143 -7 -24 -4 -29 17 -37 34
-13 34 -14 66 17 36 34 94 37 135 7 26 -19 30 -19 55 -5 20 12 34 13 55 5 22
-7 31 -6 45 8 61 61 168 1 151 -85 -12 -63 -107 -91 -151 -44 -17 18 -31 23
-63 21 -36 -1 -44 -6 -54 -32 -7 -16 -24 -37 -36 -47 l-24 -17 25 6 c14 3 95
6 182 6 l156 0 7 84 c7 76 5 88 -14 119 -37 60 -110 82 -174 53 -51 -23 -127
-27 -174 -9 -41 15 -78 12 -134 -11 -13 -6 -18 1 -23 28 -8 41 -46 90 -87 111
-43 23 -120 19 -159 -7z"/>
<path d="M820 1035 c0 -60 3 -75 15 -75 12 0 15 13 15 60 l0 60 45 0 45 0 0
-60 c0 -47 3 -60 15 -60 12 0 15 15 15 75 l0 75 -75 0 -75 0 0 -75z"/>
<path d="M1050 1035 l0 -75 70 0 c54 0 70 3 70 14 0 11 -15 16 -52 18 -63 4
-70 22 -10 26 28 2 42 8 42 17 0 9 -14 15 -42 17 -60 4 -53 22 10 26 37 2 52
7 52 18 0 11 -16 14 -70 14 l-70 0 0 -75z"/>
<path d="M1260 1096 c0 -9 12 -16 28 -18 26 -3 27 -6 30 -60 2 -43 7 -58 17
-58 12 0 15 14 15 60 l0 60 30 0 c20 0 30 5 30 15 0 12 -15 15 -75 15 -58 0
-75 -3 -75 -14z"/>
<path d="M1480 1035 c0 -60 3 -75 15 -75 8 0 15 9 15 20 0 17 7 20 43 20 48 0
77 22 77 58 0 37 -26 52 -91 52 l-59 0 0 -75z m115 20 c0 -16 -8 -21 -42 -23
-40 -3 -43 -2 -43 23 0 25 3 26 43 23 34 -2 42 -7 42 -23z"/>
<path d="M1800 1035 c0 -60 3 -75 15 -75 12 0 15 13 15 60 l0 60 45 0 45 0 0
-60 c0 -47 3 -60 15 -60 12 0 15 15 15 75 l0 75 -75 0 -75 0 0 -75z"/>
<path d="M2030 1035 l0 -75 70 0 c54 0 70 3 70 14 0 11 -15 16 -52 18 -67 4
-79 28 -14 28 33 0 46 4 46 14 0 10 -13 16 -42 18 -66 5 -61 28 6 28 43 0 56
3 56 15 0 12 -14 15 -70 15 l-70 0 0 -75z"/>
<path d="M2230 1095 c0 -10 10 -15 30 -15 l30 0 0 -60 c0 -53 2 -60 20 -60 18
0 20 7 20 60 l0 60 30 0 c20 0 30 5 30 15 0 12 -16 15 -80 15 -64 0 -80 -3
-80 -15z"/>
<path d="M2450 1035 c0 -57 3 -75 14 -75 7 0 16 9 19 20 4 15 14 20 42 20 54
0 75 15 75 53 0 47 -15 57 -87 57 l-63 0 0 -75z m118 23 c-2 -18 -11 -24 -37
-26 -38 -4 -57 9 -48 32 4 11 19 16 47 16 37 0 41 -2 38 -22z"/>
<path d="M2702 1094 c-28 -19 -31 -94 -5 -115 21 -18 115 -18 136 0 24 19 22
86 -3 111 -25 25 -95 27 -128 4z m106 -26 c7 -7 12 -21 12 -33 0 -29 -19 -45
-51 -45 -46 0 -59 10 -59 44 0 18 3 36 7 39 11 12 78 8 91 -5z"/>
<path d="M2930 1035 l0 -75 56 0 c30 0 64 5 75 10 21 12 25 40 8 57 -8 8 -7
17 3 32 19 33 -11 51 -84 51 l-58 0 0 -75z m118 33 c-3 -7 -23 -14 -46 -16
-33 -2 -42 0 -42 12 0 12 11 16 46 16 32 0 44 -4 42 -12z m2 -63 c0 -11 -12
-15 -45 -15 -33 0 -45 4 -45 15 0 11 12 15 45 15 33 0 45 -4 45 -15z"/>
<path d="M3160 1035 c0 -65 2 -75 18 -75 9 1 35 23 56 50 21 27 43 47 47 44 5
-3 9 -25 9 -50 0 -32 4 -44 15 -44 12 0 15 15 15 75 0 66 -2 75 -18 75 -10 0
-36 -22 -58 -50 -21 -27 -42 -49 -46 -50 -5 0 -8 23 -8 50 0 38 -4 50 -15 50
-12 0 -15 -15 -15 -75z"/>
<path d="M3390 1077 c0 -45 26 -67 78 -67 38 0 42 -2 42 -25 0 -16 6 -25 15
-25 12 0 15 15 15 75 0 60 -3 75 -15 75 -10 0 -15 -11 -15 -35 0 -34 -1 -35
-39 -35 -40 0 -51 11 -51 51 0 10 -7 19 -15 19 -10 0 -15 -10 -15 -33z"/>
</g>
</svg>
